<?xml version="1.0" encoding="UTF-8"?>
<svg id="Capa_1" data-name="Capa 1" xmlns="http://www.w3.org/2000/svg" viewBox="0 0 918.49 928.15">
  <defs>
    <style>
      .cls-1 {
        fill: #00237c;
      }
    </style>
  </defs>
  <g>
    <path class="cls-1" d="M371.03,911.87l-4.38-.95h-.24l-.1-.07c-88.57-19.33-168.87-66.83-226.13-133.77l-.22-.25-.03-.32c-.34-3.61-.65-7.24-.91-10.89-.79-10.93-1.18-21.99-1.18-33,0-67.49,14.63-132.3,42.42-188.32,1.85-3.74,3.77-7.43,5.74-11.08,30.84-57.25,73.47-100.2,123.25-124.23l3.68-1.77-2.4,3.31c-43.64,60.25-67.68,138.27-67.68,219.7,0,41.16,6.01,81,17.34,117.93,20.18,65.84,57.25,122.44,107.21,160.91l3.64,2.79Z"/>
    <path class="cls-1" d="M726.54,827.43c-56.31-14.57-88.01-29.97-124.34-60.58-73.8-62.15-120.94-148.41-123.04-225.1-.06-2.45-.14-4.85-.23-7.21-.03-.84-.06-1.68-.09-2.5-.85,3.8-1.63,7.75-2.28,11.85-7.53,47.46.35,105,22.16,162.03,18.88,49.34,46.75,93.46,78.53,124.22l2.53,2.46-3.46-.71c-55.54-11.44-114.5-75.69-146.69-159.89-23.61-61.72-29.65-126.46-16.38-174.22-13.83,13.3-41.69,45.44-56.18,99.66,0,.03.01.06.01.09h-.04s-.02.07-.02.11l-.2.71-2-.49.14-.55c-2.8-18.28-.27-49.73,15.24-83.36,19.94-43.22,56.23-70.72,74.77-73.95l.18,1.02.74-.71c.59.61,1.14,1.41,1.67,2.39.04.08.08.14.12.2.01.02.03.05.04.07.1.18.23.37.36.58,3.93,6.02,19.8,23.95,30.96,35.77.89.94,1.75,1.83,2.56,2.69.77.8,1.5,1.56,2.19,2.27.55.55,1.12,1.13,1.75,1.75h.01c.27.26.56.54.84.8,1.97,1.86,4.15,3.84,6.52,5.88,1.28,1.11,2.63,2.26,4.01,3.42,9.96,8.39,22.55,18.18,35.26,27.44,7.08,5.15,14.17,10.14,20.87,14.63,14.41,9.67,31.78,17.25,47.31,22.84,16.73,6.02,31.33,9.73,37.74,11.25,3.94.94,7.58,1.98,10.81,3.12,1.92.67,3.63,1.35,5.15,2.02.04.02.08.03.11.05.11.05.22.1.33.14,3.45,1.56,5.97,3.08,7.84,4.41,1.66,1.18,2.81,2.21,3.68,3,.28.25.53.46.75.66.22.19.53.46.89.8.11.1.24.22.36.34.11.1.22.21.34.32.09.08.21.19.31.28,4.56,4.29,15.93,14.8,27.95,16.77,3.4.56,6.48.97,9.36,1.12,2.63.13,5.09.06,7.48-.32,3.9-.61,7.6-2.01,11.65-4.45,2.02-1.22,4.11-2.69,6.36-4.46,9.7-7.62,20.64-11.63,29.42-14.84,3.33-1.22,6.47-2.37,9.2-3.58,1.15-.5,2.19-1.36,3.13-2.47,5.82-6.91,7.64-24.1,6.79-34.99-.09-1.25-.23-2.41-.39-3.47-.13-.88-.26-1.85-.4-2.91-.06-.51-.13-1.05-.21-1.61-1.39-10.47-4.91-29.48-31.22-64.61-5.75-7.67-12.58-16.13-20.73-25.43-2.56-2.92-5.17-6.02-7.79-9.24-.09-.11-.19-.22-.27-.33-.08-.09-.15-.19-.23-.28-.83-1.03-1.66-2.07-2.49-3.12-41.89-52.85-78.8-127.45-100.85-172.03-2.82-5.71-5.37-10.84-7.61-15.31-18.21-36.21-54.03-49.05-61.73-51.45.69,5.66,2.8,25.39.43,39.71.13.05.29.11.42.16l-.7,1.94c-8.5-3.07-23.39-12.82-39.15-23.16-18.17-11.89-36.96-24.2-46.48-26.55l-1.16-.29c-7.34-1.82-17.41-4.33-30.74-2.02-23.44,4.05-43.51,16.26-55.07,33.49-4.92,7.34-8.15,15.37-9.57,23.84l-.24,1.37-1.25-.63c-1.35-.68-2.8-1.43-4.39-2.26-11.17-5.78-29.87-15.46-72.06-31.01-5.81-2.14-11.55-4.07-17.06-5.73-49.04-14.87-80.97-10.72-88.74-6.37-1.47.82-1.77,1.44-1.83,1.68-.45,1.7-.67,3.43-.67,5.17,0,13.87,13.53,28.55,25.65,38.93,13.53,11.57,26.76,19.12,30.48,21.16,16.49,9.05,62.19,13.65,84.16,15.85,3.98.4,7.41.74,9.8,1.03,6.8.79,17.02,4.14,30.41,9.93l3.1,1.35-3.33.61c-12.35,2.29-24.66,5.28-36.59,8.91-141.96,43.15-241.11,178.02-241.11,327.97,0,21.82,2.04,43.65,6.07,64.9l1.53,8.06-3.48-7.44c-22.71-48.62-34.22-100.41-34.22-153.93s12.05-107.7,35.81-157.26c22.77-47.51,55.09-89.52,96.05-124.94-26.19-19.04-67.48-54.99-58.86-87.39.44-1.65,2.05-3.2,4.78-4.62,15.98-8.29,78.75-14.45,170.72,19.46l1.08.4c.37.14.74.28,1.11.41,15.69-6.19,31.75-11.41,48.09-15.69-10.03-22.58-33.74-48.43-63.62-69.31-30.44-21.26-62.59-33.95-86.01-33.95-2.66,0-5.27.06-7.76.2l-4.07.21,3.48-2.12c25.66-15.6,54.69-23.85,83.97-23.85,24.08,0,55.74,13.12,86.84,36,30.37,22.35,54.44,50.14,64.37,74.36.73,1.78,1.36,3.61,1.89,5.47,3.09-.22,6.21-.4,9.32-.56-3.54-8.76-7.65-17.52-12.24-26.06-37.59-69.79-87.71-85.28-124.31-96.59l-3.37-1.04,2.08-1.18c.42-.24,42.49-23.46,96.96-6.64,52.19,16.12,97.87,62.24,135.83,137.12,92.95,15.77,177.91,61.93,239.23,130.05,30.51,33.89,54.32,72.06,70.77,113.44,17.02,42.84,25.65,87.95,25.65,134.09,0,111.32-51.44,217.01-141.13,289.99"/>
  </g>
  <path class="cls-1" d="M659.72,428.65c-18.68-9.46-49.28-56.01-64.48-62.72-9.66-4.27-32.46-2.18-44.92-5.97-24.22-7.34-41.05-51.79-50.01-73.79l98.41,59.32c22.68,24.25,47.63,52.52,61,83.16Z"/>
</svg>